<?xml version="1.0" encoding="iso-8859-1"?>
<!-- Uploaded to: SVG Repo, www.svgrepo.com, Generator: SVG Repo Mixer Tools -->
<svg height="800px" width="800px" version="1.1" id="Layer_1" xmlns="http://www.w3.org/2000/svg" xmlns:xlink="http://www.w3.org/1999/xlink" 
	 viewBox="0 0 512 512" xml:space="preserve">
<path style="fill:#88888F;" d="M83.027,186.811v27.676c0,68.782,55.758,124.541,124.541,124.541h27.676V186.811H83.027z"/>
<path style="fill:#F8E99B;" d="M207.568,6.919C92.931,6.919,0,99.85,0,214.486h235.243V6.919H207.568z"/>
<path style="fill:#E07188;" d="M207.568,6.919v332.108c0,91.709,74.345,166.054,166.054,166.054H512V6.919H207.568z"/>
<path style="fill:#E02753;" d="M359.784,6.919v497.584c4.564,0.376,9.177,0.578,13.838,0.578H512V6.919H359.784z"/>
<circle style="fill:#F8F8F9;" cx="359.784" cy="159.135" r="83.027"/>
<path style="fill:#EDEDED;" d="M359.784,76.108v166.054c45.854,0,83.027-37.173,83.027-83.027S405.638,76.108,359.784,76.108z"/>
<path style="fill:#58575D;" d="M359.784,186.811h-0.003c-15.259,0-27.673-12.415-27.673-27.676
	c0.006-15.263,12.421-27.676,27.676-27.676c15.26,0,27.676,12.415,27.676,27.676S375.044,186.811,359.784,186.811z"/>
</svg>